<svg width="658.27" version="1.1" viewBox="0 0 658.27 209.57" xml:space="preserve" xmlns="http://www.w3.org/2000/svg" xmlns:cc="http://creativecommons.org/ns#" xmlns:dc="http://purl.org/dc/elements/1.1/" xmlns:rdf="http://www.w3.org/1999/02/22-rdf-syntax-ns#"><metadata><rdf:RDF><cc:Work rdf:about=""><dc:format>image/svg+xml</dc:format><dc:type rdf:resource="http://purl.org/dc/dcmitype/StillImage"/><dc:title/></cc:Work></rdf:RDF></metadata><g transform="matrix(1.3333 0 0 -1.3333 0 209.57)"><g transform="scale(.1)"><g fill="#e67483"><path d="m401.57 228.78 116.48-36.922c-17.883-64.871-47.504-113.08-89.074-144.62-41.528-31.477-94.153-47.238-158.01-47.238-78.953 0-143.84 27-194.69 80.891-50.926 53.937-76.281 127.77-76.281 221.35 0 98.922 25.496 175.81 76.699 230.6 51.071 54.75 118.22 82.152 201.61 82.152 72.738 0 131.74-21.601 177.28-64.523 26.925-25.457 47.246-61.957 60.769-109.57l-118.89-28.378c-6.969 30.8-21.633 55.199-43.938 73.05-22.344 17.789-49.375 26.731-81.316 26.731-44.039 0-79.844-15.832-107.32-47.391-27.476-31.691-41.21-82.98-41.21-153.79 0-75.242 13.601-128.69 40.582-160.65 27.058-31.848 62.246-47.891 105.48-47.891 31.859 0 59.387 10.152 82.297 30.422 23.121 20.32 39.512 52.18 49.523 95.781"/><path d="m729.4 10.102h-114.08v430.8h105.92v-61.226c18.121 28.906 34.367 48.019 48.867 57.187 14.5 9.231 30.875 13.762 49.286 13.762 25.945 0 51-7.191 75.086-21.48l-35.368-99.36c-19.136 12.457-37.035 18.68-53.461 18.68-15.976 0-29.578-4.391-40.589-13.25-11.09-8.75-19.891-24.68-26.204-47.602-6.406-23.007-9.46-71.121-9.46-144.43v-133.08"/><path d="m1199.4 262.42c-0.69 32.988-9.2 58.066-25.47 75.258-16.18 17.172-35.92 25.75-59.21 25.75-24.91 0-45.45-9.008-61.67-27.192-16.25-18.09-24.19-42.738-23.9-73.816zm-6.34-115.15 113.51-19.09c-14.66-41.692-37.68-73.34-69.19-95.121-31.52-21.758-70.82-32.66-118.27-32.66-74.89 0-130.3 24.473-166.22 73.391-28.414 39.223-42.633 88.723-42.633 148.52 0 71.351 18.793 127.26 55.976 167.64 37.31 40.481 84.48 60.672 141.62 60.672 64.05 0 114.64-21.109 151.63-63.41 37.06-42.352 54.73-107.16 53.14-194.53h-285.49c0.76-33.84 9.97-60.11 27.5-78.961 17.65-18.719 39.48-28.168 65.72-28.168 17.92 0 32.83 4.8711 45.03 14.621 12.2 9.75 21.37 25.437 27.68 47.098"/><path d="m1643.2 217.01c-14.58-4.883-37.74-10.723-69.43-17.473-31.58-6.719-52.29-13.348-62.01-19.848-14.8-10.582-22.33-23.953-22.33-40.152 0-15.91 5.95-29.769 17.85-41.391 11.99-11.66 27.07-17.449 45.46-17.449 20.53 0 40.19 6.7305 58.84 20.313 13.82 10.226 22.82 22.828 27.19 37.718 2.97 9.719 4.43 28.27 4.43 55.579zm-152.55 92.488-103.42 18.609c11.61 41.68 31.6 72.571 60.01 92.563 28.39 20.019 70.64 29.949 126.53 29.949 50.92 0 88.72-5.961 113.63-17.98 24.93-12.09 42.37-27.352 52.52-45.86 10.14-18.511 15.2-52.57 15.2-102.01l-1.17-133.07c0-37.847 1.76-65.82 5.51-83.847 3.63-17.891 10.46-37.211 20.45-57.75h-112.81c-2.92 7.5976-6.65 18.84-10.89 33.707-1.97 6.793-3.28 11.18-4.09 13.402-19.51-18.949-40.27-33.133-62.45-42.672-22.17-9.4375-45.86-14.141-70.95-14.141-44.4 0-79.35 12.051-104.97 36.133-25.45 24.02-38.22 54.438-38.22 91.18 0 24.379 5.76 46.129 17.38 65.148 11.59 19.102 27.97 33.68 48.81 43.813 21.02 10.137 51.28 18.976 90.75 26.59 53.22 10 90.16 19.367 110.73 28v11.328c0 21.922-5.4 37.59-16.22 46.89-10.82 9.29-31.28 13.95-61.25 13.95-20.29 0-36.14-3.989-47.43-11.961-11.38-7.989-20.6-21.981-27.65-41.969"/><path d="m2065.2 440.9v-90.82h-77.93v-173.62c0-35.18 0.74-55.652 2.26-61.461 1.52-5.84 4.86-10.621 10.16-14.441 5.29-3.7777 11.62-5.6293 19.26-5.6293 10.48 0 25.87 3.6016 45.89 10.898l9.72-88.418c-26.54-11.379-56.59-17.012-90.1-17.012-20.51 0-39.09 3.4727-55.6 10.363-16.45 6.8477-28.54 15.809-36.23 26.738-7.75 10.988-13.01 25.762-16.12 44.379-2.34 13.352-3.61 40.039-3.61 80.41v187.79h-52.32v90.82h52.32v85.641l114.37 66.481v-152.12h77.93"/><path d="m2144.2 10.102v430.8h114.04v-430.8zm0 489.19v105.5h114.04v-105.5h-114.04"/><path d="m2493.5 10.102-173.54 430.8h119.62l81.09-219.81 23.5-73.43c6.3 18.668 10.24 30.918 11.82 36.91 3.83 12.121 7.89 24.321 12.17 36.52l81.98 219.81h117.18l-171.25-430.8h-102.57"/><path d="m3093 262.42c-0.8 32.988-9.36 58.066-25.58 75.258-16.2 17.172-35.96 25.75-59.15 25.75-24.89 0-45.42-9.008-61.7-27.192-16.19-18.09-24.17-42.738-23.88-73.816zm-6.48-115.15 113.61-19.09c-14.65-41.692-37.7-73.34-69.23-95.121-31.42-21.758-70.92-32.66-118.22-32.66-74.91 0-130.4 24.473-166.27 73.391-28.44 39.223-42.58 88.723-42.58 148.52 0 71.351 18.62 127.26 55.93 167.64 37.34 40.481 84.54 60.672 141.58 60.672 64.09 0 114.57-21.109 151.65-63.41 37.16-42.352 54.83-107.16 53.22-194.53h-285.54c0.83-33.84 9.99-60.11 27.57-78.961 17.57-18.719 39.49-28.168 65.71-28.168 17.79 0 32.81 4.8711 44.99 14.621 12.13 9.75 21.36 25.437 27.58 47.098"/><path d="m3533.9 10.102v589.82h120.05v-489.62h298.59v-100.21h-418.64"/><path d="m4320.8 10.102v64.5c-15.66-22.973-36.26-41.09-61.78-54.32-25.62-13.27-52.57-19.883-80.97-19.883-28.9 0-54.91 6.3633-77.9 19.043-22.99 12.707-39.57 30.609-49.85 53.547-10.31 23-15.42 54.723-15.42 95.371v272.54h113.98v-197.95c0-60.519 2.05-97.668 6.23-111.28 4.25-13.75 11.91-24.543 22.96-32.492 11.09-7.9414 25.21-11.988 42.2-11.988 19.49 0 36.86 5.3281 52.29 16.09 15.47 10.61 25.98 23.918 31.73 39.68 5.67 15.848 8.44 54.598 8.44 116.27v181.67h114v-430.8h-105.91"/><path d="m4663.2 10.102-173.6 430.8h119.67l81.08-219.81 23.59-73.43c6.19 18.668 10.1 30.918 11.73 36.91 3.76 12.121 7.79 24.321 12.18 36.52l81.92 219.81h117.24l-171.2-430.8h-102.61"/><path d="m3985.8 1231.9-605.54 179.2c-18.53-38.59-24.48-72.4-24.48-118.92v-176.63c0-154.5 115.48-279.78 257.93-279.78h194.71l-15.34-232.92 492.97 232.92c142.34 0 257.84 125.29 257.84 279.78v176.63c0 41.51-4.85 71.5-19.81 106.92l-538.28-167.2"/><path d="m4520.5 1418.5c-40.72 96.36-130.39 153.32-234.47 153.32h-672.34c-99.55 0-185.87-51.17-228.87-140.7l600.96-179.2 534.72 166.58"/></g><path d="m4838 523.77h-19.28v6.98h46.96v-6.98h-19.39v-56.45h-8.29v56.45" fill="#494850"/><path d="m4926.2 495.18c-0.46 8.851-1.03 19.57-1.03 27.379h-0.18c-2.27-7.329-4.81-15.34-8-24.09l-11.2-30.77h-6.22l-10.36 30.199c-3 9.032-5.46 17.133-7.24 24.661h-0.19c-0.18-7.911-0.66-18.45-1.22-28.047l-1.7-27.192h-7.81l4.42 63.43h10.45l10.82-30.68c2.64-7.808 4.71-14.769 6.4-21.371h0.19c1.7 6.403 3.96 13.371 6.77 21.371l11.3 30.68h10.44l3.96-63.43h-8.1l-1.5 27.86" fill="#494850"/></g></g></svg>
